<mxfile host="app.diagrams.net" modified="2021-11-24T13:33:20.833Z" agent="5.0 (Macintosh; Intel Mac OS X 10_15_7) AppleWebKit/537.36 (KHTML, like Gecko) Chrome/96.0.4664.45 Safari/537.36" etag="MDQ5Nb3JZ7V1v6H8snMi" version="15.8.3" type="github">
  <diagram id="FhGGaX4cZ6p4cUrIo7r3" name="Page-1">
    <mxGraphModel dx="1426" dy="752" grid="1" gridSize="10" guides="1" tooltips="1" connect="1" arrows="1" fold="1" page="1" pageScale="1" pageWidth="850" pageHeight="1100" math="0" shadow="0">
      <root>
        <mxCell id="0" />
        <mxCell id="1" parent="0" />
        <mxCell id="ucCcJ9smYMJADtl1qao4-1" value="" style="shape=tape;whiteSpace=wrap;html=1;fillColor=#f8cecc;strokeColor=#b85450;" parent="1" vertex="1">
          <mxGeometry x="365" y="320" width="120" height="100" as="geometry" />
        </mxCell>
        <mxCell id="ucCcJ9smYMJADtl1qao4-2" value="" style="shape=document;whiteSpace=wrap;html=1;boundedLbl=1;fillColor=#f8cecc;strokeColor=#b85450;" parent="1" vertex="1">
          <mxGeometry x="370" y="190" width="120" height="80" as="geometry" />
        </mxCell>
      </root>
    </mxGraphModel>
  </diagram>
</mxfile>
